<?xml version="1.0" encoding="utf-8"?>
<!-- Generator: Adobe Illustrator 26.0.1, SVG Export Plug-In . SVG Version: 6.00 Build 0)  -->
<svg version="1.1" id="Layer_1" xmlns="http://www.w3.org/2000/svg" xmlns:xlink="http://www.w3.org/1999/xlink" x="0px" y="0px"
	 viewBox="0 0 32 32" style="enable-background:new 0 0 32 32;" xml:space="preserve">
<style type="text/css">
	.st0{fill:#FFFFFF;}
</style>
<g>
	<path class="st0" d="M31.11,8.1c-0.35-0.47-0.89-0.74-1.48-0.75H9.8L9.32,4.66C9.16,3.79,8.4,3.15,7.51,3.15H2.36
		c-1.02,0-1.84,0.82-1.84,1.84c0,1.01,0.82,1.84,1.84,1.84h3.6l2.39,13.42c0.16,0.88,0.92,1.52,1.81,1.52l16.18,0
		c0.81,0,1.53-0.53,1.76-1.31l3.28-10.73C31.57,9.17,31.46,8.57,31.11,8.1z M23.45,15.24c0,0.26-0.21,0.46-0.46,0.46h-2.76v2.76
		c0,0.26-0.21,0.46-0.46,0.46h-1.69c-0.26,0-0.46-0.21-0.46-0.46v-2.76h-2.76c-0.26,0-0.46-0.21-0.46-0.46v-1.69
		c0-0.26,0.21-0.46,0.46-0.46h2.76v-2.76c0-0.26,0.21-0.46,0.46-0.46h1.69c0.26,0,0.46,0.21,0.46,0.46v2.76h2.76
		c0.26,0,0.46,0.21,0.46,0.46V15.24z"/>
	<g>
		<path class="st0" d="M16.42,26.03c0,1.56-1.26,2.82-2.82,2.82c-1.56,0-2.82-1.26-2.82-2.82c0-1.56,1.26-2.82,2.82-2.82
			C15.15,23.21,16.42,24.47,16.42,26.03z"/>
	</g>
	<g>
		<path class="st0" d="M26.27,26.03c0,1.56-1.26,2.82-2.82,2.82c-1.56,0-2.82-1.26-2.82-2.82c0-1.56,1.26-2.83,2.82-2.83
			C25,23.2,26.27,24.46,26.27,26.03z"/>
	</g>
</g>
</svg>
