<?xml version="1.0" encoding="utf-8"?>
<!-- Generator: Adobe Illustrator 16.0.0, SVG Export Plug-In . SVG Version: 6.00 Build 0)  -->
<!DOCTYPE svg PUBLIC "-//W3C//DTD SVG 1.1//EN" "http://www.w3.org/Graphics/SVG/1.1/DTD/svg11.dtd">
<svg version="1.1" id="Layer_1" xmlns="http://www.w3.org/2000/svg" xmlns:xlink="http://www.w3.org/1999/xlink" x="0px" y="0px"
	 width="104px" height="84px" viewBox="0 0 104 84" enable-background="new 0 0 104 84" xml:space="preserve">
<path fill="#FFFFFF" d="M81.158,46.291c-1.746-0.962-2.74-3.083-2.74-3.083c-0.5-1.873-0.828-2.706-0.828-2.706
	c-0.212-0.998-2.497-4.162-2.497-4.162c-2.618-2.498-3.072-6.371-3.072-6.371c-0.085-3.496-4.82-9.736-4.82-9.736
	C54.9,4.001,54.195,4.085,51.363,4.001c-2.823-0.083-3.818,3.161-3.818,3.161c-0.664,1.666-3.115,3.746-3.115,3.746
	c-7.523,4.747-12.884,15.776-13.632,17.733c-0.746,1.953-2.662,5.328-3.862,5.825c-1.207,0.501-3.41,2.084-4.573,3.499
	c-1.165,1.416-1.452,7.7-1.535,8.364c-0.083,0.663,0.039,3.412-1.706,4.456c-1.748,1.037-4.069,3.786-4.069,3.786
	c-1.751,2.866-4.537,5.646-5.531,6.604l-0.124,0.113c-0.156,0.151-0.247,0.233-0.247,0.233h0.005l-0.68,0.648
	c0,0-5.981,6.725-1.389,8.037l1.386-1.558c0,0,4.214-4.927,11.895-1.754l5.249-4.636L25.6,61.919c2.152-1.567,2.45-1.861,2.45-1.861
	c0.695-0.662,0.88-2.408,0.88-2.408l0.805-2.656h-3.791v-7.097H31.9c0.207-0.541,2.307-1.941,2.307-1.941
	c3.159-1.454,3.532-4.58,3.532-4.58c5.65-11.53,10.262-15.066,10.262-15.066c2.456-1.082,5.029-4.495,5.029-4.495
	c2.284-4.16,3.448-3.663,3.448-3.663c1.453,0,3.2,2.167,3.2,2.167c1.494,2.617,4.322,4.785,4.322,4.785
	c3.697,3.204,3.364,5.783,3.364,5.783c1.955,4.954,5.445,3.871,5.693,7.659c0.247,3.785,0.543,4.125,1.994,5.954
	c1.451,1.828,1.912,3.702,1.912,3.702h7.937C83.695,47.87,81.158,46.291,81.158,46.291"/>
<path fill="none" stroke="#FFFFFF" stroke-width="7" stroke-linecap="round" stroke-linejoin="round" stroke-miterlimit="10" d="
	M81.158,46.291c-1.746-0.962-2.74-3.083-2.74-3.083c-0.5-1.873-0.828-2.706-0.828-2.706c-0.212-0.998-2.497-4.162-2.497-4.162
	c-2.618-2.498-3.072-6.371-3.072-6.371c-0.085-3.496-4.82-9.736-4.82-9.736C54.9,4.001,54.195,4.085,51.363,4.001
	c-2.823-0.083-3.818,3.161-3.818,3.161c-0.664,1.666-3.115,3.746-3.115,3.746c-7.523,4.747-12.884,15.776-13.632,17.733
	c-0.746,1.953-2.662,5.328-3.862,5.825c-1.207,0.501-3.41,2.084-4.573,3.499c-1.165,1.416-1.452,7.7-1.535,8.364
	c-0.083,0.663,0.039,3.412-1.706,4.456c-1.748,1.037-4.069,3.786-4.069,3.786c-1.751,2.866-4.537,5.646-5.531,6.604l-0.124,0.113
	c-0.156,0.151-0.247,0.233-0.247,0.233h0.005l-0.68,0.648c0,0-5.981,6.725-1.389,8.037l1.386-1.558c0,0,4.214-4.927,11.895-1.754
	l5.249-4.636L25.6,61.919c2.152-1.567,2.45-1.861,2.45-1.861c0.695-0.662,0.88-2.408,0.88-2.408l0.805-2.656h-3.791v-7.097H31.9
	c0.207-0.541,2.307-1.941,2.307-1.941c3.159-1.454,3.532-4.58,3.532-4.58c5.65-11.53,10.262-15.066,10.262-15.066
	c2.456-1.082,5.029-4.495,5.029-4.495c2.284-4.16,3.448-3.663,3.448-3.663c1.453,0,3.2,2.167,3.2,2.167
	c1.494,2.617,4.322,4.785,4.322,4.785c3.697,3.204,3.364,5.783,3.364,5.783c1.955,4.954,5.445,3.871,5.693,7.659
	c0.247,3.785,0.543,4.125,1.994,5.954c1.451,1.828,1.912,3.702,1.912,3.702h7.937C83.695,47.87,81.158,46.291,81.158,46.291"/>
<polygon fill="#FFFFFF" points="31.72,63.94 31.808,53.401 27.31,53.401 27.352,48.995 41.861,48.995 41.819,53.401 37.321,53.401 
	37.231,63.94 "/>
<polygon fill="none" stroke="#FFFFFF" stroke-width="7" stroke-linecap="round" stroke-linejoin="round" stroke-miterlimit="10" points="
	31.72,63.94 31.808,53.401 27.31,53.401 27.352,48.995 41.861,48.995 41.819,53.401 37.321,53.401 37.231,63.94 "/>
<polygon fill="#FFFFFF" points="42.921,63.94 43.031,48.995 55.556,48.995 55.515,52.97 48.411,52.97 48.411,54.52 55.515,54.52 
	55.469,58.366 48.367,58.366 48.346,59.963 55.469,59.963 55.423,63.94 "/>
<polygon fill="none" stroke="#FFFFFF" stroke-width="7" stroke-linecap="round" stroke-linejoin="round" stroke-miterlimit="10" points="
	42.921,63.94 43.031,48.995 55.556,48.995 55.515,52.97 48.411,52.97 48.411,54.52 55.515,54.52 55.469,58.366 48.367,58.366 
	48.346,59.963 55.469,59.963 55.423,63.94 "/>
<path fill="#FFFFFF" d="M63.23,52.577l-0.024,3.004h0.884c1.353,0,2.03-0.556,2.03-1.662c0-0.897-0.552-1.342-1.658-1.342H63.23z
	 M57.631,63.94l0.128-14.945h7.544c1.882,0,3.291,0.346,4.231,1.036c1.134,0.834,1.701,2.216,1.701,4.146
	c0,1.469-0.405,2.646-1.214,3.537c-0.88,0.97-2.147,1.446-3.793,1.446h-3.042l-0.045,4.779H57.631z"/>
<path fill="none" stroke="#FFFFFF" stroke-width="7" stroke-linecap="round" stroke-linejoin="round" stroke-miterlimit="10" d="
	M63.23,52.577l-0.024,3.004h0.884c1.353,0,2.03-0.556,2.03-1.662c0-0.897-0.552-1.342-1.658-1.342H63.23z M57.631,63.94
	l0.128-14.945h7.544c1.882,0,3.291,0.346,4.231,1.036c1.134,0.834,1.701,2.216,1.701,4.146c0,1.469-0.405,2.646-1.214,3.537
	c-0.88,0.97-2.147,1.446-3.793,1.446h-3.042l-0.045,4.779H57.631z"/>
<polygon fill="#FFFFFF" points="72.336,63.94 72.447,48.995 84.971,48.995 84.928,52.97 77.825,52.97 77.825,54.52 84.928,54.52 
	84.882,58.366 77.783,58.366 77.76,59.963 84.882,59.963 84.839,63.94 "/>
<polygon fill="none" stroke="#FFFFFF" stroke-width="7" stroke-linecap="round" stroke-linejoin="round" stroke-miterlimit="10" points="
	72.336,63.94 72.447,48.995 84.971,48.995 84.928,52.97 77.825,52.97 77.825,54.52 84.928,54.52 84.882,58.366 77.783,58.366 
	77.76,59.963 84.882,59.963 84.839,63.94 "/>
<path fill="#FFFFFF" d="M21.208,73.58l-0.068,5.978c-1.476,0.253-3.007,0.377-4.585,0.377c-2.198,0-3.872-0.572-5.02-1.723
	c-1.031-1.034-1.546-2.405-1.546-4.116c0-1.77,0.52-3.155,1.566-4.154c1.189-1.13,3-1.689,5.433-1.689
	c1.447,0,2.72,0.128,3.821,0.393l-0.501,3.084c-0.912-0.145-1.791-0.22-2.634-0.22c-2.342,0-3.519,0.905-3.519,2.729
	c0,0.711,0.177,1.284,0.536,1.703c0.401,0.496,0.984,0.741,1.746,0.741h0.657l0.03-3.102H21.208z"/>
<path fill="none" stroke="#FFFFFF" stroke-width="7" stroke-linecap="round" stroke-linejoin="round" stroke-miterlimit="10" d="
	M21.208,73.58l-0.068,5.978c-1.476,0.253-3.007,0.377-4.585,0.377c-2.198,0-3.872-0.572-5.02-1.723
	c-1.031-1.034-1.546-2.405-1.546-4.116c0-1.77,0.52-3.155,1.566-4.154c1.189-1.13,3-1.689,5.433-1.689
	c1.447,0,2.72,0.128,3.821,0.393l-0.501,3.084c-0.912-0.145-1.791-0.22-2.634-0.22c-2.342,0-3.519,0.905-3.519,2.729
	c0,0.711,0.177,1.284,0.536,1.703c0.401,0.496,0.984,0.741,1.746,0.741h0.657l0.03-3.102H21.208z"/>
<path fill="#FFFFFF" d="M22.539,68.571h4.169l-0.053,6.418c0,0.951,0.518,1.434,1.549,1.434c1.003,0,1.509-0.537,1.521-1.615
	l0.064-6.236h4.169l-0.07,5.87c-0.021,1.843-0.432,3.192-1.231,4.041c-0.921,0.972-2.478,1.452-4.666,1.452
	c-1.921,0-3.376-0.492-4.351-1.484c-0.79-0.799-1.184-1.8-1.184-3c0-0.841,0.006-1.633,0.017-2.379L22.539,68.571z"/>
<path fill="none" stroke="#FFFFFF" stroke-width="7" stroke-linecap="round" stroke-linejoin="round" stroke-miterlimit="10" d="
	M22.539,68.571h4.169l-0.053,6.418c0,0.951,0.518,1.434,1.549,1.434c1.003,0,1.509-0.537,1.521-1.615l0.064-6.236h4.169l-0.07,5.87
	c-0.021,1.843-0.432,3.192-1.231,4.041c-0.921,0.972-2.478,1.452-4.666,1.452c-1.921,0-3.376-0.492-4.351-1.484
	c-0.79-0.799-1.184-1.8-1.184-3c0-0.841,0.006-1.633,0.017-2.379L22.539,68.571z"/>
<polygon fill="#FFFFFF" points="38.241,79.617 34.758,68.571 39.156,68.571 40.607,75.719 40.641,75.719 42.258,68.571 
	46.659,68.571 42.923,79.617 "/>
<polygon fill="none" stroke="#FFFFFF" stroke-width="7" stroke-linecap="round" stroke-linejoin="round" stroke-miterlimit="10" points="
	38.241,79.617 34.758,68.571 39.156,68.571 40.607,75.719 40.641,75.719 42.258,68.571 46.659,68.571 42.923,79.617 "/>
<polygon fill="#FFFFFF" points="47.458,79.617 47.542,68.571 57.013,68.571 56.977,71.509 51.612,71.509 51.612,72.658 
	56.977,72.658 56.938,75.496 51.577,75.496 51.56,76.682 56.938,76.682 56.909,79.617 "/>
<polygon fill="none" stroke="#FFFFFF" stroke-width="7" stroke-linecap="round" stroke-linejoin="round" stroke-miterlimit="10" points="
	47.458,79.617 47.542,68.571 57.013,68.571 56.977,71.509 51.612,71.509 51.612,72.658 56.977,72.658 56.938,75.496 51.577,75.496 
	51.56,76.682 56.938,76.682 56.909,79.617 "/>
<polygon fill="#FFFFFF" points="58.577,79.617 58.662,68.571 63.826,68.571 66.311,74.938 66.342,74.938 66.375,68.571 
	70.079,68.571 69.976,79.617 64.826,79.617 62.156,73.179 62.126,73.179 62.244,79.617 "/>
<polygon fill="none" stroke="#FFFFFF" stroke-width="7" stroke-linecap="round" stroke-linejoin="round" stroke-miterlimit="10" points="
	58.577,79.617 58.662,68.571 63.826,68.571 66.311,74.938 66.342,74.938 66.375,68.571 70.079,68.571 69.976,79.617 64.826,79.617 
	62.156,73.179 62.126,73.179 62.244,79.617 "/>
<polygon fill="#FFFFFF" points="71.542,79.617 71.645,68.571 75.812,68.571 75.711,76.364 81.244,76.364 81.21,79.617 "/>
<polygon fill="none" stroke="#FFFFFF" stroke-width="7" stroke-linecap="round" stroke-linejoin="round" stroke-miterlimit="10" points="
	71.542,79.617 71.645,68.571 75.812,68.571 75.711,76.364 81.244,76.364 81.21,79.617 "/>
<polygon fill="#FFFFFF" points="82.578,79.617 82.682,68.571 86.85,68.571 86.743,79.617 "/>
<polygon fill="none" stroke="#FFFFFF" stroke-width="7" stroke-linecap="round" stroke-linejoin="round" stroke-miterlimit="10" points="
	82.578,79.617 82.682,68.571 86.85,68.571 86.743,79.617 "/>
<polygon fill="#FFFFFF" points="88.229,79.617 88.33,68.571 92.497,68.571 92.446,73.962 92.48,73.962 95.494,68.571 
	100.249,68.571 96.78,74.025 100.232,79.617 95.296,79.617 92.48,74.08 92.446,74.08 92.397,79.617 "/>
<polygon fill="none" stroke="#FFFFFF" stroke-width="7" stroke-linecap="round" stroke-linejoin="round" stroke-miterlimit="10" points="
	88.229,79.617 88.33,68.571 92.497,68.571 92.446,73.962 92.48,73.962 95.494,68.571 100.249,68.571 96.78,74.025 100.232,79.617 
	95.296,79.617 92.48,74.08 92.446,74.08 92.397,79.617 "/>
<rect x="24.039" y="66.208" fill="#FFFFFF" width="3.746" height="1.499"/>
<rect x="24.039" y="66.208" fill="none" stroke="#FFFFFF" stroke-width="7" stroke-linecap="round" stroke-linejoin="round" stroke-miterlimit="10" width="3.746" height="1.499"/>
<rect x="28.833" y="66.208" fill="#FFFFFF" width="3.747" height="1.499"/>
<rect x="28.833" y="66.208" fill="none" stroke="#FFFFFF" stroke-width="7" stroke-linecap="round" stroke-linejoin="round" stroke-miterlimit="10" width="3.747" height="1.499"/>
<rect x="83.571" y="66.208" fill="#FFFFFF" width="3.088" height="1.237"/>
<rect x="83.571" y="66.208" fill="none" stroke="#FFFFFF" stroke-width="7" stroke-linecap="round" stroke-linejoin="round" stroke-miterlimit="10" width="3.088" height="1.237"/>
<polygon fill="#FFFFFF" points="51.868,13.346 27.352,48.995 17.598,63.639 17.092,76.682 62.126,73.179 88.229,79.617 
	88.364,72.095 76.965,48.203 75.093,36.341 67.444,26.698 "/>
<polygon fill="none" stroke="#FFFFFF" stroke-width="7" stroke-linecap="round" stroke-linejoin="round" stroke-miterlimit="10" points="
	51.868,13.346 27.352,48.995 17.598,63.639 17.092,76.682 62.126,73.179 88.229,79.617 88.364,72.095 76.965,48.203 75.093,36.341 
	67.444,26.698 "/>
<path fill="#D62028" d="M81.158,46.291c-1.746-0.962-2.74-3.083-2.74-3.083c-0.5-1.873-0.828-2.706-0.828-2.706
	c-0.212-0.998-2.497-4.162-2.497-4.162c-2.618-2.498-3.072-6.371-3.072-6.371c-0.085-3.496-4.82-9.736-4.82-9.736
	C54.9,4.001,54.195,4.085,51.363,4.001c-2.823-0.083-3.818,3.161-3.818,3.161c-0.664,1.666-3.115,3.746-3.115,3.746
	c-7.523,4.747-12.884,15.776-13.632,17.733c-0.746,1.953-2.662,5.328-3.862,5.825c-1.207,0.501-3.41,2.084-4.573,3.499
	c-1.165,1.416-1.452,7.7-1.535,8.364c-0.083,0.663,0.039,3.412-1.706,4.456c-1.748,1.037-4.069,3.786-4.069,3.786
	c-1.751,2.866-4.537,5.646-5.531,6.604l-0.124,0.113c-0.156,0.151-0.247,0.233-0.247,0.233h0.005l-0.68,0.648
	c0,0-5.981,6.725-1.389,8.037l1.386-1.558c0,0,4.214-4.927,11.895-1.754l5.249-4.636L25.6,61.919c2.152-1.567,2.45-1.861,2.45-1.861
	c0.695-0.662,0.88-2.408,0.88-2.408l0.805-2.656h-3.791v-7.097H31.9c0.207-0.541,2.307-1.941,2.307-1.941
	c3.159-1.454,3.532-4.58,3.532-4.58c5.65-11.53,10.262-15.066,10.262-15.066c2.456-1.082,5.029-4.495,5.029-4.495
	c2.284-4.16,3.448-3.663,3.448-3.663c1.453,0,3.2,2.167,3.2,2.167c1.494,2.617,4.322,4.785,4.322,4.785
	c3.697,3.204,3.364,5.783,3.364,5.783c1.955,4.954,5.445,3.871,5.693,7.659c0.247,3.785,0.543,4.125,1.994,5.954
	c1.451,1.828,1.912,3.702,1.912,3.702h7.937C83.695,47.87,81.158,46.291,81.158,46.291"/>
<polygon fill="#231F20" points="31.72,63.94 31.808,53.401 27.31,53.401 27.352,48.995 41.861,48.995 41.819,53.401 37.321,53.401 
	37.231,63.94 "/>
<polygon fill="#231F20" points="42.921,63.94 43.031,48.995 55.556,48.995 55.515,52.97 48.411,52.97 48.411,54.52 55.515,54.52 
	55.469,58.366 48.367,58.366 48.346,59.963 55.469,59.963 55.423,63.94 "/>
<path fill="#231F20" d="M63.23,52.577l-0.024,3.004h0.884c1.353,0,2.03-0.556,2.03-1.662c0-0.897-0.552-1.342-1.658-1.342H63.23z
	 M57.631,63.94l0.128-14.945h7.544c1.882,0,3.291,0.346,4.231,1.036c1.134,0.834,1.701,2.216,1.701,4.146
	c0,1.469-0.405,2.646-1.214,3.537c-0.88,0.97-2.147,1.446-3.793,1.446h-3.042l-0.045,4.779H57.631z"/>
<polygon fill="#231F20" points="72.336,63.94 72.447,48.995 84.971,48.995 84.928,52.97 77.825,52.97 77.825,54.52 84.928,54.52 
	84.882,58.366 77.783,58.366 77.76,59.963 84.882,59.963 84.839,63.94 "/>
<path fill="#231F20" d="M21.208,73.58l-0.068,5.978c-1.476,0.253-3.007,0.377-4.585,0.377c-2.198,0-3.872-0.572-5.02-1.723
	c-1.031-1.034-1.546-2.405-1.546-4.116c0-1.77,0.52-3.155,1.566-4.154c1.189-1.13,3-1.689,5.433-1.689
	c1.447,0,2.72,0.128,3.821,0.393l-0.501,3.084c-0.912-0.145-1.791-0.22-2.634-0.22c-2.342,0-3.519,0.905-3.519,2.729
	c0,0.711,0.177,1.284,0.536,1.703c0.401,0.496,0.984,0.741,1.746,0.741h0.657l0.03-3.102H21.208z"/>
<path fill="#231F20" d="M22.539,68.571h4.169l-0.053,6.418c0,0.951,0.518,1.434,1.549,1.434c1.003,0,1.509-0.537,1.521-1.615
	l0.064-6.236h4.169l-0.07,5.87c-0.021,1.843-0.432,3.192-1.231,4.041c-0.921,0.972-2.478,1.452-4.666,1.452
	c-1.921,0-3.376-0.492-4.351-1.484c-0.79-0.799-1.184-1.8-1.184-3c0-0.841,0.006-1.633,0.017-2.379L22.539,68.571z"/>
<polygon fill="#231F20" points="38.241,79.617 34.758,68.571 39.156,68.571 40.607,75.719 40.641,75.719 42.258,68.571 
	46.659,68.571 42.923,79.617 "/>
<polygon fill="#231F20" points="47.458,79.617 47.542,68.571 57.013,68.571 56.977,71.509 51.612,71.509 51.612,72.658 
	56.977,72.658 56.938,75.496 51.577,75.496 51.56,76.682 56.938,76.682 56.909,79.617 "/>
<polygon fill="#231F20" points="58.577,79.617 58.662,68.571 63.826,68.571 66.311,74.938 66.342,74.938 66.375,68.571 
	70.079,68.571 69.976,79.617 64.826,79.617 62.156,73.179 62.126,73.179 62.244,79.617 "/>
<polygon fill="#231F20" points="71.542,79.617 71.645,68.571 75.812,68.571 75.711,76.364 81.244,76.364 81.21,79.617 "/>
<polygon fill="#231F20" points="82.578,79.617 82.682,68.571 86.85,68.571 86.743,79.617 "/>
<polygon fill="#231F20" points="88.229,79.617 88.33,68.571 92.497,68.571 92.446,73.962 92.48,73.962 95.494,68.571 
	100.249,68.571 96.78,74.025 100.232,79.617 95.296,79.617 92.48,74.08 92.446,74.08 92.397,79.617 "/>
<rect x="24.039" y="66.208" fill="#231F20" width="3.746" height="1.499"/>
<rect x="28.833" y="66.208" fill="#231F20" width="3.747" height="1.499"/>
<rect x="83.571" y="66.208" fill="#231F20" width="3.088" height="1.237"/>
</svg>
